<svg width="750" height="200" viewBox="0 0 750 200" fill="none" xmlns="http://www.w3.org/2000/svg">
<path d="M275.981 42.75V150H251.769V86.8687L252.825 68.9125L248.681 89.4687L230.644 141.387H206.838L188.881 89.4687L184.819 68.9125L185.875 86.8687V150H161.581V42.75H195.706L217.319 114.331L218.781 122.862L220.244 114.331L241.856 42.75H275.981Z" fill="#5F62EC"/>
<path d="M346.224 90.0375H400.906V96.8625C400.906 104.554 399.606 111.731 397.006 118.394C394.46 125.056 390.804 130.906 386.037 135.944C381.27 140.981 375.583 144.908 368.974 147.725C362.366 150.542 355.054 151.95 347.037 151.95C338.749 151.95 331.22 150.542 324.449 147.725C317.733 144.854 311.937 140.873 307.062 135.781C302.187 130.69 298.449 124.785 295.849 118.069C293.249 111.298 291.949 104.04 291.949 96.2937C291.949 88.6021 293.249 81.3979 295.849 74.6812C298.449 67.9104 302.187 62.0062 307.062 56.9687C311.937 51.8771 317.733 47.9229 324.449 45.1062C331.22 42.2354 338.749 40.8 347.037 40.8C353.808 40.8 359.766 41.5312 364.912 42.9937C370.112 44.4562 374.581 46.4062 378.318 48.8437C382.056 51.2812 385.224 53.9625 387.824 56.8875C390.424 59.7583 392.591 62.575 394.324 65.3375L371.249 76.225C369.029 72.8125 365.995 69.8333 362.149 67.2875C358.358 64.7417 353.32 63.4687 347.037 63.4687C342.649 63.4687 338.614 64.3354 334.931 66.0688C331.301 67.8021 328.16 70.1854 325.506 73.2187C322.851 76.1979 320.793 79.6917 319.331 83.7C317.922 87.6542 317.218 91.8521 317.218 96.2937C317.218 100.79 317.922 105.015 319.331 108.969C320.793 112.923 322.851 116.417 325.506 119.45C328.16 122.483 331.301 124.867 334.931 126.6C338.614 128.279 342.649 129.119 347.037 129.119C350.883 129.119 354.376 128.631 357.518 127.656C360.66 126.681 363.368 125.273 365.643 123.431C367.972 121.59 369.787 119.423 371.087 116.931C372.441 114.385 373.254 111.596 373.524 108.562H346.224V90.0375ZM437.525 150H412.825V83.2937H437.525V93.6125H437.119C437.552 92.3667 438.609 90.7958 440.288 88.9C441.967 86.95 444.323 85.2167 447.357 83.7C450.39 82.1292 454.1 81.3437 458.488 81.3437C461.575 81.3437 464.419 81.8312 467.019 82.8062C469.619 83.7271 471.515 84.6208 472.707 85.4875L463.119 105.556C462.361 104.635 461.007 103.687 459.057 102.712C457.161 101.683 454.777 101.169 451.907 101.169C448.602 101.169 445.867 102.008 443.7 103.687C441.588 105.367 440.017 107.398 438.988 109.781C438.013 112.165 437.525 114.412 437.525 116.525V150ZM529.377 150V139.194C528.89 140.277 527.644 141.848 525.64 143.906C523.69 145.965 521.09 147.833 517.84 149.512C514.59 151.138 510.798 151.95 506.465 151.95C499.965 151.95 494.277 150.379 489.402 147.237C484.527 144.042 480.735 139.79 478.027 134.481C475.319 129.119 473.965 123.187 473.965 116.687C473.965 110.187 475.319 104.283 478.027 98.975C480.735 93.6125 484.527 89.3333 489.402 86.1375C494.277 82.9417 499.965 81.3437 506.465 81.3437C510.635 81.3437 514.292 82.0208 517.433 83.375C520.575 84.675 523.121 86.2458 525.071 88.0875C527.021 89.875 528.375 91.5271 529.133 93.0437V83.2937H553.671V150H529.377ZM498.177 116.687C498.177 119.721 498.881 122.456 500.29 124.894C501.698 127.277 503.567 129.146 505.896 130.5C508.279 131.854 510.906 132.531 513.777 132.531C516.756 132.531 519.383 131.854 521.658 130.5C523.933 129.146 525.721 127.277 527.021 124.894C528.375 122.456 529.052 119.721 529.052 116.687C529.052 113.654 528.375 110.946 527.021 108.562C525.721 106.125 523.933 104.229 521.658 102.875C519.383 101.467 516.756 100.762 513.777 100.762C510.906 100.762 508.279 101.467 505.896 102.875C503.567 104.229 501.698 106.125 500.29 108.562C498.881 110.946 498.177 113.654 498.177 116.687ZM593.638 183.8H569.182V83.2937H593.882V93.0437C594.64 91.5271 596.076 89.875 598.188 88.0875C600.355 86.2458 603.09 84.675 606.395 83.375C609.753 82.0208 613.545 81.3437 617.77 81.3437C624.27 81.3437 629.822 82.9417 634.426 86.1375C639.084 89.3333 642.659 93.6125 645.151 98.975C647.642 104.283 648.888 110.187 648.888 116.687C648.888 123.187 647.561 129.119 644.907 134.481C642.253 139.79 638.515 144.042 633.695 147.237C628.928 150.379 623.295 151.95 616.795 151.95C612.136 151.95 608.155 151.138 604.851 149.512C601.601 147.833 599.028 145.992 597.132 143.987C595.29 141.929 594.126 140.331 593.638 139.194V183.8ZM624.757 116.687C624.757 113.654 624.08 110.946 622.726 108.562C621.372 106.125 619.53 104.229 617.201 102.875C614.926 101.467 612.353 100.762 609.482 100.762C606.503 100.762 603.822 101.467 601.438 102.875C599.109 104.229 597.267 106.125 595.913 108.562C594.559 110.946 593.882 113.654 593.882 116.687C593.882 119.721 594.559 122.456 595.913 124.894C597.267 127.277 599.109 129.146 601.438 130.5C603.822 131.854 606.503 132.531 609.482 132.531C612.353 132.531 614.926 131.854 617.201 130.5C619.53 129.146 621.372 127.277 622.726 124.894C624.08 122.456 624.757 119.721 624.757 116.687ZM707.861 81.3437C712.519 81.3437 717.069 82.2917 721.511 84.1875C725.952 86.0833 729.608 89.0896 732.479 93.2062C735.35 97.2687 736.786 102.631 736.786 109.294V150H712.086V113.356C712.086 108.59 711.002 105.015 708.836 102.631C706.723 100.194 703.825 98.975 700.142 98.975C697.704 98.975 695.375 99.625 693.154 100.925C690.933 102.171 689.119 103.958 687.711 106.287C686.356 108.562 685.679 111.19 685.679 114.169V150H660.898V38.2H685.679V93.125C686.275 91.3375 687.602 89.55 689.661 87.7625C691.773 85.9208 694.4 84.4042 697.542 83.2125C700.738 81.9667 704.177 81.3437 707.861 81.3437Z" fill="#8C8FEF"/>
<path d="M15 39.3389C15 36.831 16.8579 34.7111 19.3441 34.3821L84.5916 25.7484C87.5875 25.352 90.2475 27.6832 90.2475 30.7052V131.147C90.2475 133.631 88.4234 135.738 85.9647 136.095L20.7171 145.551C17.7018 145.988 15 143.649 15 140.602V39.3389Z" fill="#AFADFF"/>
<path d="M39.7524 55.4595C39.7524 52.9516 41.6103 50.8317 44.0965 50.5027L109.344 41.869C112.34 41.4726 115 43.8038 115 46.8258V147.267C115 149.752 113.176 151.859 110.717 152.215L45.4696 161.671C42.4542 162.108 39.7524 159.77 39.7524 156.723V55.4595Z" fill="#8C8FEF"/>
<path d="M43.9404 50.6854L89.7516 44.8179L89.9881 131.174C89.9943 133.41 88.3579 135.311 86.1461 135.638L40.2521 142.421L40.0121 55.1613C40.0059 52.8923 41.6898 50.9736 43.9404 50.6854Z" stroke="white"/>
</svg>
