<svg width="1500" height="538" viewBox="0 0 1500 538" fill="none" xmlns="http://www.w3.org/2000/svg">
<path d="M551.963 223.5V438H503.538V311.737L505.65 275.825L497.362 316.937L461.288 420.775H413.675L377.763 316.937L369.638 275.825L371.75 311.737V438H323.163V223.5H391.413L434.638 366.662L437.563 383.725L440.488 366.662L483.713 223.5H551.963Z" fill="#5F62EC"/>
<path d="M692.449 318.075H801.811V331.725C801.811 347.108 799.211 361.462 794.011 374.787C788.92 388.112 781.607 399.812 772.074 409.887C762.541 419.962 751.166 427.817 737.949 433.45C724.732 439.083 710.107 441.9 694.074 441.9C677.499 441.9 662.441 439.083 648.899 433.45C635.465 427.708 623.874 419.746 614.124 409.562C604.374 399.379 596.899 387.571 591.699 374.137C586.499 360.596 583.899 346.079 583.899 330.587C583.899 315.204 586.499 300.796 591.699 287.362C596.899 273.821 604.374 262.012 614.124 251.937C623.874 241.754 635.465 233.846 648.899 228.212C662.441 222.471 677.499 219.6 694.074 219.6C707.616 219.6 719.532 221.062 729.824 223.987C740.224 226.912 749.161 230.812 756.636 235.687C764.111 240.562 770.449 245.925 775.649 251.775C780.849 257.517 785.182 263.15 788.649 268.675L742.499 290.45C738.057 283.625 731.991 277.667 724.299 272.575C716.716 267.483 706.641 264.937 694.074 264.937C685.299 264.937 677.228 266.671 669.861 270.138C662.603 273.604 656.32 278.371 651.011 284.437C645.703 290.396 641.586 297.383 638.661 305.4C635.845 313.308 634.436 321.704 634.436 330.587C634.436 339.579 635.845 348.029 638.661 355.938C641.586 363.846 645.703 370.833 651.011 376.9C656.32 382.967 662.603 387.733 669.861 391.2C677.228 394.558 685.299 396.238 694.074 396.238C701.765 396.238 708.753 395.262 715.036 393.312C721.32 391.362 726.736 388.546 731.286 384.862C735.945 381.179 739.574 376.846 742.174 371.862C744.882 366.771 746.507 361.192 747.049 355.125H692.449V318.075ZM875.051 438H825.651V304.587H875.051V325.225H874.238C875.105 322.733 877.217 319.592 880.576 315.8C883.934 311.9 888.646 308.433 894.713 305.4C900.78 302.258 908.201 300.687 916.976 300.687C923.151 300.687 928.838 301.662 934.038 303.612C939.238 305.454 943.03 307.242 945.413 308.975L926.238 349.112C924.721 347.271 922.013 345.375 918.113 343.425C914.321 341.367 909.555 340.337 903.813 340.337C897.205 340.337 891.734 342.017 887.401 345.375C883.176 348.733 880.034 352.796 877.976 357.562C876.026 362.329 875.051 366.825 875.051 371.05V438ZM1058.75 438V416.387C1057.78 418.554 1055.29 421.696 1051.28 425.812C1047.38 429.929 1042.18 433.667 1035.68 437.025C1029.18 440.275 1021.6 441.9 1012.93 441.9C999.929 441.9 988.554 438.758 978.804 432.475C969.054 426.083 961.471 417.579 956.054 406.962C950.638 396.237 947.929 384.375 947.929 371.375C947.929 358.375 950.638 346.567 956.054 335.95C961.471 325.225 969.054 316.667 978.804 310.275C988.554 303.883 999.929 300.687 1012.93 300.687C1021.27 300.687 1028.58 302.042 1034.87 304.75C1041.15 307.35 1046.24 310.492 1050.14 314.175C1054.04 317.75 1056.75 321.054 1058.27 324.087V304.587H1107.34V438H1058.75ZM996.354 371.375C996.354 377.442 997.763 382.912 1000.58 387.787C1003.4 392.554 1007.13 396.292 1011.79 399C1016.56 401.708 1021.81 403.062 1027.55 403.062C1033.51 403.062 1038.77 401.708 1043.32 399C1047.87 396.292 1051.44 392.554 1054.04 387.787C1056.75 382.912 1058.1 377.442 1058.1 371.375C1058.1 365.308 1056.75 359.892 1054.04 355.125C1051.44 350.25 1047.87 346.458 1043.32 343.75C1038.77 340.933 1033.51 339.525 1027.55 339.525C1021.81 339.525 1016.56 340.933 1011.79 343.75C1007.13 346.458 1003.4 350.25 1000.58 355.125C997.763 359.892 996.354 365.308 996.354 371.375ZM1187.28 505.6H1138.36V304.587H1187.76V324.087C1189.28 321.054 1192.15 317.75 1196.38 314.175C1200.71 310.492 1206.18 307.35 1212.79 304.75C1219.51 302.042 1227.09 300.687 1235.54 300.687C1248.54 300.687 1259.64 303.883 1268.85 310.275C1278.17 316.667 1285.32 325.225 1290.3 335.95C1295.28 346.567 1297.78 358.375 1297.78 371.375C1297.78 384.375 1295.12 396.237 1289.81 406.962C1284.51 417.579 1277.03 426.083 1267.39 432.475C1257.86 438.758 1246.59 441.9 1233.59 441.9C1224.27 441.9 1216.31 440.275 1209.7 437.025C1203.2 433.667 1198.06 429.983 1194.26 425.975C1190.58 421.858 1188.25 418.662 1187.28 416.387V505.6ZM1249.51 371.375C1249.51 365.308 1248.16 359.892 1245.45 355.125C1242.74 350.25 1239.06 346.458 1234.4 343.75C1229.85 340.933 1224.71 339.525 1218.96 339.525C1213.01 339.525 1207.64 340.933 1202.88 343.75C1198.22 346.458 1194.53 350.25 1191.83 355.125C1189.12 359.892 1187.76 365.308 1187.76 371.375C1187.76 377.442 1189.12 382.912 1191.83 387.787C1194.53 392.554 1198.22 396.292 1202.88 399C1207.64 401.708 1213.01 403.062 1218.96 403.062C1224.71 403.062 1229.85 401.708 1234.4 399C1239.06 396.292 1242.74 392.554 1245.45 387.787C1248.16 382.912 1249.51 377.442 1249.51 371.375ZM1415.72 300.687C1425.04 300.687 1434.14 302.583 1443.02 306.375C1451.9 310.167 1459.22 316.179 1464.96 324.412C1470.7 332.537 1473.57 343.262 1473.57 356.587V438H1424.17V364.712C1424.17 355.179 1422 348.029 1417.67 343.262C1413.45 338.387 1407.65 335.95 1400.28 335.95C1395.41 335.95 1390.75 337.25 1386.31 339.85C1381.87 342.342 1378.24 345.917 1375.42 350.575C1372.71 355.125 1371.36 360.379 1371.36 366.337V438H1321.8V214.4H1371.36V324.25C1372.55 320.675 1375.2 317.1 1379.32 313.525C1383.55 309.842 1388.8 306.808 1395.08 304.425C1401.48 301.933 1408.35 300.687 1415.72 300.687Z" fill="#8C8FEF"/>
<path d="M30 212.296C30 209.788 31.8579 207.668 34.3441 207.339L174.839 188.748C177.835 188.352 180.495 190.683 180.495 193.705V404.621C180.495 407.105 178.671 409.213 176.212 409.569L35.7171 429.93C32.7018 430.367 30 428.029 30 424.982V212.296Z" fill="#AFADFF"/>
<path d="M79.5049 244.537C79.5049 242.029 81.3628 239.909 83.849 239.58L224.344 220.99C227.34 220.593 230 222.925 230 225.947V436.862C230 439.347 228.176 441.454 225.717 441.81L85.222 462.172C82.2067 462.609 79.5049 460.27 79.5049 457.223V244.537Z" fill="#8C8FEF"/>
<path d="M83.4404 239.435L180.002 227.068L180.488 404.674C180.494 406.91 178.858 408.811 176.646 409.138L80.0059 423.421L79.5121 243.911C79.5059 241.642 81.1898 239.724 83.4404 239.435Z" stroke="white"/>
<path d="M394.075 136.2H381.1V43.425H394.3V54.975C394.75 53.425 396 51.6 398.05 49.5C400.1 47.4 402.85 45.575 406.3 44.025C409.8 42.425 413.8 41.625 418.3 41.625C424 41.625 429.05 43 433.45 45.75C437.9 48.45 441.375 52.25 443.875 57.15C446.425 62 447.7 67.7 447.7 74.25C447.7 80.8 446.4 86.525 443.8 91.425C441.2 96.275 437.65 100.05 433.15 102.75C428.7 105.45 423.6 106.8 417.85 106.8C413.2 106.8 409.125 105.925 405.625 104.175C402.175 102.425 399.45 100.45 397.45 98.25C395.5 96.05 394.375 94.3 394.075 93V136.2ZM434.8 74.25C434.8 69.8 433.875 65.95 432.025 62.7C430.225 59.45 427.825 56.925 424.825 55.125C421.825 53.325 418.575 52.425 415.075 52.425C411.225 52.425 407.725 53.35 404.575 55.2C401.425 57 398.925 59.55 397.075 62.85C395.225 66.1 394.3 69.9 394.3 74.25C394.3 78.6 395.225 82.425 397.075 85.725C398.925 88.975 401.425 91.5 404.575 93.3C407.725 95.1 411.225 96 415.075 96C418.575 96 421.825 95.125 424.825 93.375C427.825 91.575 430.225 89.05 432.025 85.8C433.875 82.55 434.8 78.7 434.8 74.25ZM489.795 106.8C483.445 106.8 477.795 105.375 472.845 102.525C467.945 99.675 464.095 95.825 461.295 90.975C458.495 86.075 457.095 80.55 457.095 74.4C457.095 68.25 458.495 62.7 461.295 57.75C464.095 52.8 467.945 48.875 472.845 45.975C477.795 43.075 483.445 41.625 489.795 41.625C496.095 41.625 501.67 43.075 506.52 45.975C511.42 48.875 515.245 52.8 517.995 57.75C520.745 62.7 522.12 68.25 522.12 74.4C522.12 80.55 520.745 86.075 517.995 90.975C515.245 95.825 511.42 99.675 506.52 102.525C501.67 105.375 496.095 106.8 489.795 106.8ZM489.795 95.625C493.795 95.625 497.27 94.7 500.22 92.85C503.22 91 505.545 88.475 507.195 85.275C508.845 82.025 509.67 78.375 509.67 74.325C509.67 70.275 508.845 66.625 507.195 63.375C505.545 60.125 503.22 57.55 500.22 55.65C497.27 53.75 493.795 52.8 489.795 52.8C485.745 52.8 482.22 53.75 479.22 55.65C476.22 57.55 473.87 60.125 472.17 63.375C470.52 66.625 469.695 70.275 469.695 74.325C469.695 78.375 470.52 82.025 472.17 85.275C473.87 88.475 476.22 91 479.22 92.85C482.22 94.7 485.745 95.625 489.795 95.625ZM577.163 58.875L561.488 105H547.988L531.263 43.425H545.138L556.313 90.75L571.763 44.625H582.563L597.863 90.75L609.113 43.425H623.063L606.338 105H592.838L577.163 58.875ZM644.079 76.875C644.129 80.575 644.929 83.95 646.479 87C648.029 90.05 650.329 92.475 653.379 94.275C656.479 96.075 660.279 96.975 664.779 96.975C668.579 96.975 671.804 96.425 674.454 95.325C677.154 94.175 679.354 92.825 681.054 91.275C682.754 89.675 683.979 88.25 684.729 87L691.104 94.875C689.454 97.275 687.429 99.375 685.029 101.175C682.679 102.975 679.804 104.35 676.404 105.3C673.004 106.3 668.854 106.8 663.954 106.8C657.354 106.8 651.629 105.4 646.779 102.6C641.979 99.75 638.279 95.825 635.679 90.825C633.079 85.775 631.779 80 631.779 73.5C631.779 67.5 633.004 62.1 635.454 57.3C637.904 52.45 641.454 48.625 646.104 45.825C650.804 43.025 656.454 41.625 663.054 41.625C669.104 41.625 674.354 42.9 678.804 45.45C683.304 47.95 686.779 51.5 689.229 56.1C691.729 60.7 692.979 66.2 692.979 72.6C692.979 73 692.954 73.725 692.904 74.775C692.854 75.775 692.804 76.475 692.754 76.875H644.079ZM680.529 67.05C680.479 65 679.879 62.75 678.729 60.3C677.629 57.85 675.829 55.75 673.329 54C670.829 52.25 667.454 51.375 663.204 51.375C658.804 51.375 655.254 52.225 652.554 53.925C649.904 55.625 647.954 57.7 646.704 60.15C645.454 62.55 644.729 64.85 644.529 67.05H680.529ZM720.214 105H707.239V43.425H720.214V54.075H719.839C720.089 52.775 721.014 51.15 722.614 49.2C724.214 47.25 726.414 45.5 729.214 43.95C732.014 42.4 735.364 41.625 739.264 41.625C742.114 41.625 744.614 42.025 746.764 42.825C748.964 43.575 750.514 44.325 751.414 45.075L746.089 55.875C745.389 55.175 744.164 54.475 742.414 53.775C740.664 53.025 738.489 52.65 735.889 52.65C732.589 52.65 729.764 53.675 727.414 55.725C725.064 57.775 723.264 60.25 722.014 63.15C720.814 66 720.214 68.65 720.214 71.1V105ZM766.687 76.875C766.737 80.575 767.537 83.95 769.087 87C770.637 90.05 772.937 92.475 775.987 94.275C779.087 96.075 782.887 96.975 787.387 96.975C791.187 96.975 794.412 96.425 797.062 95.325C799.762 94.175 801.962 92.825 803.662 91.275C805.362 89.675 806.587 88.25 807.337 87L813.712 94.875C812.062 97.275 810.037 99.375 807.637 101.175C805.287 102.975 802.412 104.35 799.012 105.3C795.612 106.3 791.462 106.8 786.562 106.8C779.962 106.8 774.237 105.4 769.387 102.6C764.587 99.75 760.887 95.825 758.287 90.825C755.687 85.775 754.387 80 754.387 73.5C754.387 67.5 755.612 62.1 758.062 57.3C760.512 52.45 764.062 48.625 768.712 45.825C773.412 43.025 779.062 41.625 785.662 41.625C791.712 41.625 796.962 42.9 801.412 45.45C805.912 47.95 809.387 51.5 811.837 56.1C814.337 60.7 815.587 66.2 815.587 72.6C815.587 73 815.562 73.725 815.512 74.775C815.462 75.775 815.412 76.475 815.362 76.875H766.687ZM803.137 67.05C803.087 65 802.487 62.75 801.337 60.3C800.237 57.85 798.437 55.75 795.937 54C793.437 52.25 790.062 51.375 785.812 51.375C781.412 51.375 777.862 52.225 775.162 53.925C772.512 55.625 770.562 57.7 769.312 60.15C768.062 62.55 767.337 64.85 767.137 67.05H803.137ZM857.146 106.8C851.496 106.8 846.421 105.45 841.921 102.75C837.471 100.05 833.946 96.275 831.346 91.425C828.796 86.525 827.521 80.8 827.521 74.25C827.521 67.7 828.796 62 831.346 57.15C833.946 52.25 837.471 48.45 841.921 45.75C846.421 43 851.496 41.625 857.146 41.625C861.696 41.625 865.696 42.425 869.146 44.025C872.596 45.575 875.346 47.4 877.396 49.5C879.446 51.6 880.621 53.425 880.921 54.975V1.8H894.046V105H881.146V93C880.596 94.7 879.221 96.625 877.021 98.775C874.871 100.925 872.096 102.8 868.696 104.4C865.296 106 861.446 106.8 857.146 106.8ZM860.146 96C863.946 96 867.421 95.1 870.571 93.3C873.721 91.5 876.221 88.975 878.071 85.725C879.971 82.425 880.921 78.6 880.921 74.25C880.921 69.9 879.971 66.1 878.071 62.85C876.221 59.55 873.721 57 870.571 55.2C867.421 53.35 863.946 52.425 860.146 52.425C856.646 52.425 853.396 53.325 850.396 55.125C847.396 56.925 844.971 59.45 843.121 62.7C841.321 65.95 840.421 69.8 840.421 74.25C840.421 78.7 841.321 82.55 843.121 85.8C844.971 89.05 847.396 91.575 850.396 93.375C853.396 95.125 856.646 96 860.146 96ZM945.712 105V1.8H958.912V54.975C959.212 53.425 960.387 51.6 962.437 49.5C964.487 47.4 967.237 45.575 970.687 44.025C974.137 42.425 978.112 41.625 982.612 41.625C988.362 41.625 993.462 43 997.912 45.75C1002.36 48.45 1005.86 52.25 1008.41 57.15C1011.01 62 1012.31 67.7 1012.31 74.25C1012.31 80.8 1011.01 86.525 1008.41 91.425C1005.86 96.275 1002.36 100.05 997.912 102.75C993.462 105.45 988.362 106.8 982.612 106.8C978.362 106.8 974.512 106 971.062 104.4C967.662 102.8 964.887 100.925 962.737 98.775C960.587 96.625 959.237 94.7 958.687 93V105H945.712ZM999.337 74.25C999.337 69.8 998.437 65.95 996.637 62.7C994.837 59.45 992.437 56.925 989.437 55.125C986.487 53.325 983.237 52.425 979.687 52.425C975.837 52.425 972.337 53.35 969.187 55.2C966.037 57 963.537 59.55 961.687 62.85C959.837 66.1 958.912 69.9 958.912 74.25C958.912 78.6 959.837 82.425 961.687 85.725C963.537 88.975 966.037 91.5 969.187 93.3C972.337 95.1 975.837 96 979.687 96C983.237 96 986.487 95.125 989.437 93.375C992.437 91.575 994.837 89.05 996.637 85.8C998.437 82.55 999.337 78.7 999.337 74.25ZM1050.25 93.075L1071.02 43.425H1084.07L1042.52 136.2H1029.32L1043.27 105L1017.92 43.425H1031.2L1050.25 93.075Z" fill="black"/>
</svg>
